<svg viewBox="0 0 14 14" xmlns="http://www.w3.org/2000/svg"><path d="m10.2805 7.579c-.551 0-1.0675-.2335-1.537-.6135l.114-.538.004-.021c.1035-.5715.4245-1.53 1.4195-1.53.746 0 1.3515.606 1.3515 1.3515-.0005.7445-.606 1.351-1.352 1.351zm0-4.07c-1.2695 0-2.255.8245-2.655 2.183-.61-.917-1.074-2.018-1.3435-2.946h-1.368v3.556c-.001.703-.5705 1.273-1.2735 1.274-.7025-.001-1.2715-.5715-1.2725-1.274v-3.556h-1.368v3.556c0 1.457 1.185 2.6515 2.6405 2.6515 1.4565 0 2.6415-1.1945 2.6415-2.6515v-.595c.2645.5535.591 1.1145.987 1.6105l-.8365 3.9365h1.3985l.6065-2.855c.5315.3395 1.1425.5545 1.843.5545 1.5 0 2.7195-1.226 2.7195-2.725 0-1.5-1.2195-2.7195-2.7195-2.7195z"/></svg>