<svg width="12" height="10" viewBox="0 0 12 10" fill="none" xmlns="http://www.w3.org/2000/svg">
<path d="M9.2805 5.579C8.7295 5.579 8.213 5.3455 7.7435 4.9655L7.8575 4.4275L7.8615 4.4065C7.965 3.835 8.286 2.8765 9.281 2.8765C10.027 2.8765 10.6325 3.4825 10.6325 4.228C10.632 4.9725 10.0265 5.579 9.2805 5.579ZM9.2805 1.509C8.011 1.509 7.0255 2.3335 6.6255 3.692C6.0155 2.775 5.5515 1.674 5.282 0.746002H3.914V4.302C3.913 5.005 3.3435 5.575 2.6405 5.576C1.938 5.575 1.369 5.0045 1.368 4.302V0.746002H0V4.302C0 5.759 1.185 6.9535 2.6405 6.9535C4.097 6.9535 5.282 5.759 5.282 4.302V3.707C5.5465 4.2605 5.873 4.8215 6.269 5.3175L5.4325 9.254H6.831L7.4375 6.399C7.969 6.7385 8.58 6.9535 9.2805 6.9535C10.7805 6.9535 12 5.7275 12 4.2285C12 2.7285 10.7805 1.509 9.2805 1.509Z" fill="white"/>
</svg>
